<svg id="Layer_1" data-name="Layer 1" xmlns="http://www.w3.org/2000/svg" viewBox="0 0 87.25 32"><defs><style>.cls-1{fill:none;}.cls-2{fill:#fff;}</style></defs><title>logohaidr-large</title><path class="cls-1" d="M24.08,18.35c-3.3,0-5.84,3.82-6.73,7.64H29.82C29.66,23.25,29,18.35,24.08,18.35Z" transform="translate(-2.15 -2)"/><path class="cls-2" d="M24,15.48c-3.23,0-5.64,2.75-6.85,5.58v-.52c0-1.48-.44-2.07-1.87-2.07h-.86V26H10.12a3.08,3.08,0,0,1-1.43-.28v-5.6c0-1.48-.45-2.07-1.88-2.07H6v7.83c0,4,.41,6.07-3,6.07a6.51,6.51,0,0,1-.76-.07v.71c0,.9.89,1.42,2.19,1.42A4,4,0,0,0,8.5,30.09V28.73a.71.71,0,0,1,.06-.24,3.72,3.72,0,0,0,.86.09h22c1.07,0,1.27-2,1.27-3.48C32.65,20.29,30.27,15.48,24,15.48ZM17.35,26c.89-3.82,3.43-7.64,6.73-7.64,4.88,0,5.58,4.9,5.74,7.64Z" transform="translate(-2.15 -2)"/><path class="cls-2" d="M23.92,13.42a1.48,1.48,0,1,0-1.59-1.48A1.52,1.52,0,0,0,23.92,13.42Z" transform="translate(-2.15 -2)"/><path class="cls-2" d="M38,23.56A2.12,2.12,0,0,0,40.39,26h.41v2.59H39.69c-2.89-.13-4.44-2-4.44-4.9V10h.85c1.43,0,1.88.59,1.88,2.06Z" transform="translate(-2.15 -2)"/><path class="cls-2" d="M55.05,27.59a29.21,29.21,0,0,1-.16,3s-1.3-2-4.82-2H40V26H52.19c-.16-2.74-1.52-7.86-5.74-7.86-3.49,0-4.67,1.94-4.67,1.94V19c0-1.76,1.4-3.52,5.24-3.52C53.46,15.48,55.05,22.26,55.05,27.59Z" transform="translate(-2.15 -2)"/><path class="cls-2" d="M11.77,32.22a.43.43,0,0,1,0-.07.39.39,0,0,1,0-.09.3.3,0,0,1,0-.1.49.49,0,0,1,0-.12.67.67,0,0,1,.06-.28.57.57,0,0,1,.15-.23.91.91,0,0,1,.23-.15.73.73,0,0,1,.3-.06.82.82,0,0,1,.28.05.6.6,0,0,1,.21.14.67.67,0,0,1,.13.22,1,1,0,0,1,0,.3v.71h-2.5l-.38,0a1.38,1.38,0,0,1-.26-.07.4.4,0,0,1-.17-.1.45.45,0,0,1-.11-.13.53.53,0,0,1-.05-.15s0-.11,0-.16v-.08a.28.28,0,0,0,0-.09.28.28,0,0,0,0-.09s0-.06,0-.09l.3,0v.12a.53.53,0,0,0,0,.13.79.79,0,0,0,0,.17.29.29,0,0,0,.12.13.77.77,0,0,0,.26.06,2.77,2.77,0,0,0,.46,0h1Zm1,0V31.9a.75.75,0,0,0,0-.23.28.28,0,0,0-.09-.14.25.25,0,0,0-.12-.08l-.14,0a.41.41,0,0,0-.16,0,.25.25,0,0,0-.12.08.3.3,0,0,0-.09.13.41.41,0,0,0,0,.16A.29.29,0,0,0,12,32a.38.38,0,0,0,.09.13.53.53,0,0,0,.15.08.6.6,0,0,0,.2,0Zm-.52-1.67a.17.17,0,0,1,0-.07l0-.06.06,0h.15a.09.09,0,0,1,.06,0l.05.06a.17.17,0,0,1,0,.07.22.22,0,0,1,0,.08.12.12,0,0,1-.05.05.09.09,0,0,1-.06,0l-.07,0a.17.17,0,0,1-.19-.19Z" transform="translate(-2.15 -2)"/><path class="cls-2" d="M13.65,30H14v2.51h-.33Z" transform="translate(-2.15 -2)"/><path class="cls-2" d="M14.27,33a1.33,1.33,0,0,0,.3-.07.52.52,0,0,0,.18-.13.36.36,0,0,0,.07-.18.9.9,0,0,0,0-.24V31.19h.33v1h.42a.16.16,0,0,1,.1,0,.08.08,0,0,1,0,.07v.12a.07.07,0,0,1,0,.05l0,0,0,0h-.49a1.14,1.14,0,0,1-.09.31.6.6,0,0,1-.17.21,1,1,0,0,1-.25.14l-.34.07Z" transform="translate(-2.15 -2)"/><path class="cls-2" d="M16.4,32.1a.51.51,0,0,0,.21.1,1.09,1.09,0,0,0,.26,0c0-.07.06-.15.1-.23a1.58,1.58,0,0,1,.13-.26c.06-.08.12-.17.19-.25a2.39,2.39,0,0,1,.23-.22,1.51,1.51,0,0,1,.28-.15.9.9,0,0,1,.67,0,.64.64,0,0,1,.25.18.8.8,0,0,1,.13.28,1.21,1.21,0,0,1,0,.34v.3h.37a.16.16,0,0,1,.1,0,.08.08,0,0,1,0,.07v.12a.43.43,0,0,1,0,.05l0,0,0,0H16.73l-.15,0-.13,0-.12-.08a.34.34,0,0,1-.12.12.39.39,0,0,1-.2,0h-.42l-.1,0a.08.08,0,0,1,0-.07v-.12a.13.13,0,0,1,0-.06l0,0H16a.11.11,0,0,0,.09,0,.31.31,0,0,0,0-.15v-.5h.33ZM18.57,32a1.14,1.14,0,0,0,0-.28.5.5,0,0,0-.11-.18.34.34,0,0,0-.16-.1.58.58,0,0,0-.19,0,.52.52,0,0,0-.21,0,.77.77,0,0,0-.36.25l-.14.18-.11.19a1.59,1.59,0,0,0-.07.2h1.38Z" transform="translate(-2.15 -2)"/><path class="cls-2" d="M19.27,32.54l-.1,0a.08.08,0,0,1,0-.07v-.12a.13.13,0,0,1,0-.06s0,0,0,0h.68v-1h.32v1.35Zm.58-2a.17.17,0,0,1,0-.07.21.21,0,0,1,0-.06l.06,0h.15s.05,0,.06,0a.21.21,0,0,1,0,.06.19.19,0,0,1,0,.07.24.24,0,0,1,0,.08.1.1,0,0,1,0,.05s0,0-.06,0l-.07,0a.22.22,0,0,1-.14-.05A.17.17,0,0,1,19.85,30.56Z" transform="translate(-2.15 -2)"/><path class="cls-2" d="M22.84,30v2.51H20.79v-.31h.79V30.71h.33v1.52h.6V30ZM22,33h-.11a.21.21,0,0,0-.12,0,.1.1,0,0,0-.05.1.17.17,0,0,0,0,.07l.05.06.08,0,.12,0H22v.14h-.56v-.14h.21l0,0,0,0a.09.09,0,0,1,0-.07.19.19,0,0,1,0-.08.29.29,0,0,1,0-.09.13.13,0,0,1,.06-.07l.1-.06.14,0H22Z" transform="translate(-2.15 -2)"/><path class="cls-2" d="M23.45,30h.32v2.51h-.32Z" transform="translate(-2.15 -2)"/><path class="cls-2" d="M25.47,32.48l-.09,0-.1,0h-.17a.75.75,0,0,1-.35-.07.63.63,0,0,1-.23-.16.54.54,0,0,1-.13-.22.67.67,0,0,1,0-.24.93.93,0,0,1,.05-.29.87.87,0,0,1,.16-.23,1,1,0,0,1,.24-.15.83.83,0,0,1,.32-.06l.15,0a.42.42,0,0,1,.15,0l.14.09.12.15a1,1,0,0,1,.08.21,1.23,1.23,0,0,1,0,.29v.29a1.14,1.14,0,0,1-.09.48.83.83,0,0,1-.24.31,1,1,0,0,1-.38.19,3,3,0,0,1-.47.09l0-.31a1.73,1.73,0,0,0,.35,0,1.16,1.16,0,0,0,.27-.11.65.65,0,0,0,.18-.15A.48.48,0,0,0,25.47,32.48Zm-.31-.25h.18l.08,0,0,0V32a1.3,1.3,0,0,0,0-.31.6.6,0,0,0-.09-.18.38.38,0,0,0-.13-.09l-.15,0a.37.37,0,0,0-.15,0,.33.33,0,0,0-.21.21.47.47,0,0,0,0,.17.77.77,0,0,0,0,.15.27.27,0,0,0,.09.12.38.38,0,0,0,.15.09A.69.69,0,0,0,25.16,32.23Z" transform="translate(-2.15 -2)"/><path class="cls-2" d="M27.06,33a1.48,1.48,0,0,0,.3-.07.52.52,0,0,0,.18-.13.48.48,0,0,0,.07-.18,1.66,1.66,0,0,0,0-.24V31.19H28v1.07a1.4,1.4,0,0,1-.05.44.72.72,0,0,1-.16.3.64.64,0,0,1-.27.18,1.63,1.63,0,0,1-.38.09Z" transform="translate(-2.15 -2)"/><path class="cls-2" d="M29.3,32.54a1,1,0,0,1-.37-.06.72.72,0,0,1-.25-.16.61.61,0,0,1-.13-.22.67.67,0,0,1,0-.24.71.71,0,0,1,0-.29.87.87,0,0,1,.16-.23.7.7,0,0,1,.24-.15.79.79,0,0,1,.32-.06l.14,0a.42.42,0,0,1,.16,0l.14.09a.58.58,0,0,1,.11.15.49.49,0,0,1,.08.21,1.23,1.23,0,0,1,0,.29v.3h.39c.05,0,.08,0,.1,0a.08.08,0,0,1,0,.07v.12a.07.07,0,0,1,0,.05,0,0,0,0,1,0,0l0,0h-.46a.73.73,0,0,1-.15.32.78.78,0,0,1-.26.22,1.16,1.16,0,0,1-.34.14l-.41.07,0-.31a1.56,1.56,0,0,0,.59-.13.52.52,0,0,0,.28-.31Zm.32-.31V32a1.3,1.3,0,0,0,0-.31.61.61,0,0,0-.1-.18.3.3,0,0,0-.13-.09l-.14,0a.41.41,0,0,0-.16,0l-.12.08a.38.38,0,0,0-.09.13.47.47,0,0,0,0,.17.4.4,0,0,0,0,.15.25.25,0,0,0,.08.12.36.36,0,0,0,.15.08.48.48,0,0,0,.22,0Z" transform="translate(-2.15 -2)"/><path class="cls-2" d="M31.14,32.1a.51.51,0,0,0,.21.1,1.12,1.12,0,0,0,.27,0,1.36,1.36,0,0,1,.09-.23,1.65,1.65,0,0,1,.14-.26,2,2,0,0,1,.18-.25,2.39,2.39,0,0,1,.23-.22,1.51,1.51,0,0,1,.28-.15.87.87,0,0,1,.32-.06,1,1,0,0,1,.36.07.69.69,0,0,1,.24.18.82.82,0,0,1,.14.28,1.22,1.22,0,0,1,0,.34v.3H34a.15.15,0,0,1,.1,0,.08.08,0,0,1,0,.07v.12a.07.07,0,0,1,0,.05l0,0,0,0H31.47l-.15,0-.13,0-.12-.08a.34.34,0,0,1-.12.12.36.36,0,0,1-.19,0h-.43l-.1,0a.08.08,0,0,1,0-.07v-.12s0,0,0-.06l0,0h.45a.11.11,0,0,0,.09,0,.31.31,0,0,0,0-.15v-.5h.33ZM33.32,32a1.11,1.11,0,0,0,0-.28.4.4,0,0,0-.11-.18.31.31,0,0,0-.15-.1.64.64,0,0,0-.2,0,.52.52,0,0,0-.21,0,.69.69,0,0,0-.19.1.8.8,0,0,0-.17.15l-.14.18A1.74,1.74,0,0,0,32,32a.8.8,0,0,0-.07.2h1.38Zm-1.13-1.4a.19.19,0,0,1,0-.07.21.21,0,0,1,0-.06.09.09,0,0,1,.06,0h.15l.06,0,0,.06a.17.17,0,0,1,0,.07.22.22,0,0,1,0,.08.1.1,0,0,1,0,.05l-.06,0-.08,0a.19.19,0,0,1-.13-.05A.18.18,0,0,1,32.19,30.56Z" transform="translate(-2.15 -2)"/><path class="cls-2" d="M34.35,31.17l.21-.05a1,1,0,0,1,.25,0,.6.6,0,0,1,.24.05.45.45,0,0,1,.19.11.57.57,0,0,1,.12.18.88.88,0,0,1,.07.23l0,.21c0,.07,0,.13,0,.19a.35.35,0,0,0,.07.12.14.14,0,0,0,.11,0h.17s.07,0,.09,0a.07.07,0,0,1,0,.07v.12a.43.43,0,0,1,0,.05l0,0,0,0H34l-.1,0a.08.08,0,0,1,0-.07v-.12a.13.13,0,0,1,0-.06l0,0h1.37a.21.21,0,0,1-.06-.1.69.69,0,0,1,0-.18,1.77,1.77,0,0,0,0-.2.48.48,0,0,0-.07-.18.29.29,0,0,0-.14-.13.36.36,0,0,0-.22-.05h-.09l-.1,0-.1,0-.08,0Z" transform="translate(-2.15 -2)"/><path class="cls-2" d="M35.86,32.54l-.1,0a.08.08,0,0,1,0-.07v-.12a.13.13,0,0,1,0-.06s0,0,0,0h.59V30h.32v2.51Z" transform="translate(-2.15 -2)"/><path class="cls-2" d="M37.28,30h.33v2.51h-.33Z" transform="translate(-2.15 -2)"/><path class="cls-2" d="M39.75,32.33l-.17,0a.35.35,0,0,0-.16.08.58.58,0,0,0-.11.15.57.57,0,0,0,0,.24,1.41,1.41,0,0,0,0,.2,2.23,2.23,0,0,0,0,.23c0,.07,0,.16.06.24l.09.25-.3.1c0-.08-.05-.16-.08-.25s-.05-.19-.07-.28,0-.18-.05-.26a1.83,1.83,0,0,1,0-.21.68.68,0,0,1,0-.26.7.7,0,0,1,.08-.2.53.53,0,0,1,.12-.14l.13-.1.13-.08.11-.06a2.76,2.76,0,0,1,.12-.32,1,1,0,0,1,.14-.23.56.56,0,0,1,.14-.16.6.6,0,0,1,.15-.09.33.33,0,0,1,.13,0l.13,0a.65.65,0,0,1,.21,0,.51.51,0,0,1,.18.09.86.86,0,0,1,.14.13.83.83,0,0,1,.09.16.44.44,0,0,1,.06.16.92.92,0,0,1,0,.16.66.66,0,0,1,0,.14.47.47,0,0,1-.06.15.42.42,0,0,1-.09.14.74.74,0,0,1-.13.12,1,1,0,0,1-.18.08.78.78,0,0,1-.22,0l-.2,0a.69.69,0,0,1-.17,0,.47.47,0,0,1-.14-.08A.31.31,0,0,1,39.75,32.33Zm1-.39a.39.39,0,0,0,0-.15.48.48,0,0,0-.08-.16.38.38,0,0,0-.13-.12.36.36,0,0,0-.19-.05.33.33,0,0,0-.19.06.4.4,0,0,0-.15.14.64.64,0,0,0-.11.2,2,2,0,0,0-.07.23.22.22,0,0,0,.07.06l.12,0,.15,0h.34l.14,0a.2.2,0,0,0,.09-.09A.33.33,0,0,0,40.77,31.94Z" transform="translate(-2.15 -2)"/><path class="cls-2" d="M41.59,30h.32v1.88a.66.66,0,0,0,0,.15.15.15,0,0,0,0,.1.12.12,0,0,0,0,.05l.09,0h.12s.08,0,.1,0a.08.08,0,0,1,0,.07v.12a.07.07,0,0,1,0,.05s0,0,0,0l0,0h-.22a.46.46,0,0,1-.21,0,.36.36,0,0,1-.14-.1.51.51,0,0,1-.09-.16,1.36,1.36,0,0,1,0-.21Z" transform="translate(-2.15 -2)"/><path class="cls-2" d="M42.21,32.54l-.09,0a.08.08,0,0,1,0-.07v-.12a.13.13,0,0,1,0-.06s0,0,0,0h.53l.06-.18c0-.06.07-.13.1-.2V30h.33v1.38l.16-.14a.78.78,0,0,1,.18-.11l.2-.07a.76.76,0,0,1,.21,0,1,1,0,0,1,.36.07.69.69,0,0,1,.24.18.82.82,0,0,1,.14.28,1.22,1.22,0,0,1,0,.34v.3H45a.16.16,0,0,1,.1,0,.08.08,0,0,1,0,.07v.12a.07.07,0,0,1,0,.05l0,0,0,0H42.21ZM44.35,32a1.11,1.11,0,0,0,0-.28.4.4,0,0,0-.11-.18.31.31,0,0,0-.15-.1.64.64,0,0,0-.2,0,.52.52,0,0,0-.21,0,.69.69,0,0,0-.19.1.8.8,0,0,0-.17.15l-.14.18A1.74,1.74,0,0,0,43,32a.8.8,0,0,0-.07.2h1.38Zm-.65-1.4a.17.17,0,0,1,0-.07l0-.06.06,0H44a.09.09,0,0,1,.06,0l0,.06a.17.17,0,0,1,0,.07.22.22,0,0,1,0,.08.12.12,0,0,1,0,.05.09.09,0,0,1-.06,0l-.07,0a.17.17,0,0,1-.19-.19Z" transform="translate(-2.15 -2)"/><path class="cls-2" d="M45,32.54l-.1,0a.08.08,0,0,1,0-.07v-.12a.13.13,0,0,1,0-.06l0,0h.68v-1H46v1.35Zm.58-2a.17.17,0,0,1,0-.07l0-.06.06,0h.15a.09.09,0,0,1,.06,0,.21.21,0,0,1,0,.06.1.1,0,0,1,0,.07.12.12,0,0,1,0,.08.1.1,0,0,1,0,.05.09.09,0,0,1-.06,0l-.07,0a.17.17,0,0,1-.19-.19Z" transform="translate(-2.15 -2)"/><path class="cls-2" d="M63.9,10.22c.2,0,.38,0,.94-.39a5,5,0,0,0,1-1l.15-.19C67.21,7,70.18,3,74.46,3.26,78,3.51,80.51,6.18,81.71,11l.09.34a4.2,4.2,0,0,0,.94,2.08.63.63,0,0,0,.37.12.63.63,0,0,0,.39-1.11A6,6,0,0,1,83,11a.36.36,0,0,0,0-.11l0-.21A15.55,15.55,0,0,0,81,6a8.13,8.13,0,0,0-6.44-4h0c-5-.25-8.2,4.07-9.59,5.92l-.14.19a3.93,3.93,0,0,1-1,.91.55.55,0,0,0-.15.08.65.65,0,0,0-.23.64.63.63,0,0,0,.47.47Zm0,0" transform="translate(-2.15 -2)"/><path class="cls-2" d="M79.54,12.61a4.19,4.19,0,0,0,0-3.33A3.41,3.41,0,0,0,77.4,7.52c-1.49-.46-3.3.37-5,2.27a28.57,28.57,0,0,1-4.86,4,17.2,17.2,0,0,1-3.73,1.62.58.58,0,0,0-.37.28h3.16a17.35,17.35,0,0,0,1.59-.83,28.57,28.57,0,0,0,5.14-4.27c1-1.15,2.5-2.26,3.66-1.9a2.14,2.14,0,0,1,1.41,1.11,3,3,0,0,1-.06,2.33,10,10,0,0,1-3,3.56h1.89a9.46,9.46,0,0,0,2.29-3.1Zm0,0" transform="translate(-2.15 -2)"/><path class="cls-2" d="M64.42,13.33a8.39,8.39,0,0,0,1.79-.85,12.77,12.77,0,0,0,1.42-.86,13.9,13.9,0,0,0,2.31-2.29c.28-.34.58-.67.89-1l.53-.5.28-.25.15-.12.14-.1a8.28,8.28,0,0,1,1.38-.88A5.63,5.63,0,0,1,74.79,6a2.15,2.15,0,0,1,.37-.06.63.63,0,0,0,0-1.25A9.32,9.32,0,0,0,69.48,8c-.28.32-.53.65-.81,1a12.92,12.92,0,0,1-1.16,1.18,7.17,7.17,0,0,1-1.25.94c-.53.3-1.07.61-1.61.87a4.66,4.66,0,0,1-.56.22.62.62,0,1,0,.33,1.2Zm0,0" transform="translate(-2.15 -2)"/><path class="cls-2" d="M76.7,10.51a.61.61,0,0,0-.87.14,20.12,20.12,0,0,1-5.49,5.06h2.18a20.39,20.39,0,0,0,4.32-4.33.62.62,0,0,0-.14-.87Zm0,0" transform="translate(-2.15 -2)"/><path class="cls-2" d="M79.92,14.88a3.49,3.49,0,0,0,.24.83h1.42a2.75,2.75,0,0,1-.46-1.16c-.13-.8-1.33-.46-1.2.33Zm0,0" transform="translate(-2.15 -2)"/><rect class="cls-2" x="59.26" y="14.27" width="24.62" height="0.82"/><rect class="cls-2" x="85" y="13.87" width="2.26" height="1.62"/><rect class="cls-2" x="55.59" y="13.87" width="2.26" height="1.62"/><path class="cls-2" d="M80.9,19.53a5.83,5.83,0,0,0,1.32.63c.77.23.44,1.44-.33,1.2a7,7,0,0,1-4.1-3.31H74.31c-.28.19-.56.38-.84.55a65.2,65.2,0,0,1-8,4.51.52.52,0,0,1-.24.05.63.63,0,0,1-.58-.37.64.64,0,0,1,.33-.83A59.86,59.86,0,0,0,72,18.05h-3.2a32,32,0,0,1-4.19,1.86h0a.6.6,0,0,1-.22,0,.61.61,0,0,1-.58-.4.64.64,0,0,1,.36-.81h0c.31-.11.93-.34,1.73-.68H61.4v14.8H86V18.05h-6.8a5.26,5.26,0,0,0,1.67,1.48ZM78.12,30.64a.63.63,0,0,1-.86.19c-.38-.25-.72-.49-1-.71-.8-.57-1.48-1.06-1.94-1a8.33,8.33,0,0,0-2.49,1.92.59.59,0,0,1-.44.19.66.66,0,0,1-.44-.17.63.63,0,0,1,0-.89c.34-.35,2.07-2.1,3.17-2.28s1.85.46,2.88,1.19c.31.22.63.45,1,.68a.62.62,0,0,1,.18.86Zm2.3-3.16a.62.62,0,0,1-.8.37,15.06,15.06,0,0,1-2.34-1.28,10.14,10.14,0,0,0-2.63-1.36c-.63.11-3.5,2.2-4.59,3l-.83.6a.62.62,0,0,1-.72-1l.82-.59c2.72-2,4.34-3.09,5.11-3.22s1.83.49,3.5,1.52a14.36,14.36,0,0,0,2.11,1.18.62.62,0,0,1,.37.8ZM82,24.41a.61.61,0,0,1-.78.4,14.07,14.07,0,0,1-3.28-1.94c-1-.75-2.34-1.67-2.87-1.58a21,21,0,0,0-3.84,2.25,22.31,22.31,0,0,1-4.46,2.56l-.16,0a.62.62,0,0,1-.6-.46.63.63,0,0,1,.44-.77,23.15,23.15,0,0,0,4.09-2.39c2.16-1.43,3.53-2.3,4.32-2.44,1-.18,2.32.73,3.8,1.79a13.58,13.58,0,0,0,3,1.77.62.62,0,0,1,.39.79Zm0,0" transform="translate(-2.15 -2)"/><path class="cls-2" d="M63.94,28.23a.4.4,0,0,0-.08-.23v-.56a.27.27,0,0,0-.27-.27h0a.27.27,0,0,0-.27.27V28a.4.4,0,0,0-.08.23.35.35,0,0,0,.35.35h0a.35.35,0,0,0,.35-.35Zm0,0" transform="translate(-2.15 -2)"/><path class="cls-2" d="M64.77,28v-.56a.27.27,0,1,0-.54,0V28a.4.4,0,0,0-.08.23.35.35,0,0,0,.35.35.35.35,0,0,0,.35-.35.34.34,0,0,0-.08-.23Zm0,0" transform="translate(-2.15 -2)"/><path class="cls-2" d="M65.41,27.17a.27.27,0,0,0-.27.27V28a.4.4,0,0,0-.08.23.36.36,0,0,0,.71,0,.4.4,0,0,0-.08-.23v-.56a.28.28,0,0,0-.28-.27Zm0,0" transform="translate(-2.15 -2)"/><path class="cls-2" d="M66,27.59h-.1v.55H66a.41.41,0,0,1,.41.41v2.86a.41.41,0,0,1-.41.41H63a.42.42,0,0,1-.42-.41V28.55a.41.41,0,0,1,.42-.41h.1v-.55H63a1,1,0,0,0-1,1v2.86a1,1,0,0,0,1,.95H66a1,1,0,0,0,1-.95V28.55a1,1,0,0,0-1-1Zm0,0" transform="translate(-2.15 -2)"/><path class="cls-2" d="M63.31,29.84a.36.36,0,0,0,0,.71.36.36,0,1,0,0-.71Zm0,0" transform="translate(-2.15 -2)"/><path class="cls-2" d="M64.5,29.84a.36.36,0,1,0,.35.35.36.36,0,0,0-.35-.35Zm0,0" transform="translate(-2.15 -2)"/><path class="cls-2" d="M65.68,29.84a.36.36,0,0,0,0,.71.36.36,0,1,0,0-.71Zm0,0" transform="translate(-2.15 -2)"/><path class="cls-2" d="M63.31,30.79a.36.36,0,0,0,0,.71.36.36,0,1,0,0-.71Zm0,0" transform="translate(-2.15 -2)"/><path class="cls-2" d="M64.5,30.79a.36.36,0,1,0,.35.35.36.36,0,0,0-.35-.35Zm0,0" transform="translate(-2.15 -2)"/><path class="cls-2" d="M65.68,30.79a.36.36,0,0,0,0,.71.36.36,0,1,0,0-.71Zm0,0" transform="translate(-2.15 -2)"/><path class="cls-2" d="M65.68,28.89a.35.35,0,0,0-.35.35.36.36,0,1,0,.71,0,.35.35,0,0,0-.36-.35Zm0,0" transform="translate(-2.15 -2)"/></svg>