<svg id="Layer_1" data-name="Layer 1" xmlns="http://www.w3.org/2000/svg" viewBox="0 0 31.66 30.85"><defs><style>.cls-1{fill:#fff;}</style></defs><title>logo-hader-small</title><path class="cls-1" d="M7.62,10.58c.19.05.38,0,.93-.38a5.36,5.36,0,0,0,1-1L9.65,9c1.27-1.69,4.24-5.63,8.53-5.42,3.53.26,6,2.93,7.24,7.72a3.14,3.14,0,0,0,.1.34,4,4,0,0,0,.94,2.08.6.6,0,0,0,.36.12.64.64,0,0,0,.51-.26.63.63,0,0,0-.12-.85,5.79,5.79,0,0,1-.49-1.42l0-.1c0-.05,0-.13-.06-.21A15.31,15.31,0,0,0,24.7,6.36a8.1,8.1,0,0,0-6.44-4h0c-5-.26-8.21,4.07-9.59,5.91l-.15.19a3.72,3.72,0,0,1-1,.91.53.53,0,0,0-.15.08.64.64,0,0,0-.24.64.61.61,0,0,0,.48.47Zm0,0" transform="translate(-1.45 -2.36)"/><path class="cls-1" d="M23.25,13a4.21,4.21,0,0,0,0-3.34,3.39,3.39,0,0,0-2.17-1.76c-1.49-.46-3.3.37-5,2.27a27.91,27.91,0,0,1-4.86,4,17.49,17.49,0,0,1-3.72,1.61.64.64,0,0,0-.38.28h3.16a17.35,17.35,0,0,0,1.59-.83A29,29,0,0,0,17.09,11c1-1.16,2.49-2.26,3.66-1.9a2.16,2.16,0,0,1,1.4,1.1,2.94,2.94,0,0,1-.06,2.34,9.93,9.93,0,0,1-3,3.55H21A9.25,9.25,0,0,0,23.25,13Zm0,0" transform="translate(-1.45 -2.36)"/><path class="cls-1" d="M8.13,13.69a9.21,9.21,0,0,0,1.8-.84A12.71,12.71,0,0,0,11.34,12,13.12,13.12,0,0,0,13.65,9.7c.28-.35.58-.67.89-1s.35-.33.53-.49L15.36,8l.14-.12.14-.11A9.48,9.48,0,0,1,17,6.86a5.7,5.7,0,0,1,1.49-.52,3.35,3.35,0,0,1,.36-.06.63.63,0,0,0,.63-.62A.63.63,0,0,0,18.87,5,9.18,9.18,0,0,0,13.2,8.32c-.28.31-.54.65-.81,1a12.92,12.92,0,0,1-1.16,1.18A6.41,6.41,0,0,1,10,11.4c-.53.3-1.06.61-1.61.87a2.72,2.72,0,0,1-.56.22.63.63,0,0,0-.43.77.62.62,0,0,0,.76.43Zm0,0" transform="translate(-1.45 -2.36)"/><path class="cls-1" d="M20.41,10.87a.63.63,0,0,0-.87.15,20.34,20.34,0,0,1-5.48,5.05h2.17a20,20,0,0,0,4.33-4.33.63.63,0,0,0-.15-.87Zm0,0" transform="translate(-1.45 -2.36)"/><path class="cls-1" d="M23.63,15.24a3.36,3.36,0,0,0,.24.83h1.42a2.64,2.64,0,0,1-.45-1.16c-.13-.79-1.34-.45-1.21.33Zm0,0" transform="translate(-1.45 -2.36)"/><rect class="cls-1" x="3.67" y="14.27" width="24.62" height="0.82"/><rect class="cls-1" x="29.41" y="13.87" width="2.26" height="1.62"/><rect class="cls-1" y="13.87" width="2.26" height="1.62"/><path class="cls-1" d="M24.61,19.9a6.47,6.47,0,0,0,1.32.62c.77.23.44,1.44-.33,1.2a6.94,6.94,0,0,1-4.1-3.31H18l-.84.56a67.33,67.33,0,0,1-8,4.51.74.74,0,0,1-.25.05.63.63,0,0,1-.25-1.2,59.4,59.4,0,0,0,7.09-3.92h-3.2a29.32,29.32,0,0,1-4.2,1.86h0a.76.76,0,0,1-.21,0,.62.62,0,0,1-.23-1.2l0,0c.31-.11.93-.33,1.74-.68H5.12v14.8H29.74V18.41h-6.8a5.54,5.54,0,0,0,1.67,1.49ZM21.84,31a.63.63,0,0,1-.87.18c-.37-.24-.72-.49-1-.71-.79-.57-1.48-1.06-1.94-1a8.1,8.1,0,0,0-2.48,1.93.65.65,0,0,1-.45.19.6.6,0,0,1-.43-.18.62.62,0,0,1,0-.88c.34-.35,2.08-2.1,3.17-2.29s1.85.47,2.88,1.2c.31.22.63.45,1,.68a.63.63,0,0,1,.19.86Zm2.3-3.17a.63.63,0,0,1-.8.38A15.27,15.27,0,0,1,21,26.93a10.47,10.47,0,0,0-2.63-1.36c-.62.11-3.5,2.21-4.58,3l-.84.61a.66.66,0,0,1-.36.11.63.63,0,0,1-.51-.26.62.62,0,0,1,.15-.87l.82-.6c2.72-2,4.34-3.09,5.11-3.22s1.83.5,3.5,1.53A14.66,14.66,0,0,0,23.76,27a.63.63,0,0,1,.38.8Zm1.58-3.06a.63.63,0,0,1-.79.39,14.28,14.28,0,0,1-3.28-1.94c-1-.74-2.34-1.66-2.87-1.57a21.8,21.8,0,0,0-3.84,2.24,22,22,0,0,1-4.45,2.57l-.16,0A.64.64,0,0,1,9.72,26a.62.62,0,0,1,.44-.76,23.71,23.71,0,0,0,4.1-2.4c2.16-1.42,3.53-2.3,4.31-2.44,1-.17,2.32.74,3.81,1.79A13.38,13.38,0,0,0,25.32,24a.62.62,0,0,1,.4.79Zm0,0" transform="translate(-1.45 -2.36)"/><path class="cls-1" d="M7.65,28.59a.3.3,0,0,0-.08-.22v-.56a.27.27,0,0,0-.27-.27h0a.28.28,0,0,0-.28.27v.56a.35.35,0,0,0-.08.22A.36.36,0,0,0,7.3,29h0a.35.35,0,0,0,.35-.36Zm0,0" transform="translate(-1.45 -2.36)"/><path class="cls-1" d="M8.49,28.37v-.56a.28.28,0,0,0-.28-.27.27.27,0,0,0-.27.27v.56a.35.35,0,0,0-.08.22.36.36,0,1,0,.71,0,.35.35,0,0,0-.08-.22Zm0,0" transform="translate(-1.45 -2.36)"/><path class="cls-1" d="M9.13,27.54a.27.27,0,0,0-.27.27v.56a.31.31,0,0,0-.09.22.36.36,0,1,0,.71,0,.35.35,0,0,0-.08-.22v-.56a.27.27,0,0,0-.27-.27Zm0,0" transform="translate(-1.45 -2.36)"/><path class="cls-1" d="M9.75,28h-.1v.54h.1a.41.41,0,0,1,.41.41v2.86a.41.41,0,0,1-.41.41H6.67a.41.41,0,0,1-.41-.41V28.91a.41.41,0,0,1,.41-.41h.1V28h-.1a1,1,0,0,0-1,.95v2.86a1,1,0,0,0,1,1H9.75a1,1,0,0,0,1-1V28.91a1,1,0,0,0-1-.95Zm0,0" transform="translate(-1.45 -2.36)"/><path class="cls-1" d="M7,30.2a.36.36,0,1,0,0,.71.36.36,0,0,0,0-.71Zm0,0" transform="translate(-1.45 -2.36)"/><path class="cls-1" d="M8.21,30.2a.36.36,0,1,0,.36.36.36.36,0,0,0-.36-.36Zm0,0" transform="translate(-1.45 -2.36)"/><path class="cls-1" d="M9.4,30.2a.36.36,0,1,0,0,.71.36.36,0,0,0,0-.71Zm0,0" transform="translate(-1.45 -2.36)"/><path class="cls-1" d="M7,31.15a.36.36,0,1,0,0,.71.36.36,0,0,0,0-.71Zm0,0" transform="translate(-1.45 -2.36)"/><path class="cls-1" d="M8.21,31.15a.36.36,0,1,0,.36.36.36.36,0,0,0-.36-.36Zm0,0" transform="translate(-1.45 -2.36)"/><path class="cls-1" d="M9.4,31.15a.36.36,0,1,0,0,.71.36.36,0,0,0,0-.71Zm0,0" transform="translate(-1.45 -2.36)"/><path class="cls-1" d="M9.4,29.25a.36.36,0,1,0,.35.35.36.36,0,0,0-.35-.35Zm0,0" transform="translate(-1.45 -2.36)"/></svg>